REM DIRINDEX 1\2\3,1\2\4,1\2\5,1\2\6
REM DIRNAME folder01,folder02,folder03,folder04,folder05,folder06
TITLE ""
FILE "088 088.mp3" MP3
  TRACK 01 AUDIO
    TITLE "0:"
    INDEX 01 00:00:00
  TRACK 02 AUDIO
    TITLE "3:cjc157_3321"
    INDEX 01 00:00:11
  TRACK 03 AUDIO
    TITLE "0:"
    INDEX 01 00:01:26
  TRACK 04 AUDIO
    TITLE "4:cjc157_3322"
    INDEX 01 00:01:66
  TRACK 05 AUDIO
    TITLE "0:"
    INDEX 01 00:03:14
  TRACK 06 AUDIO
    TITLE "5:cjc157_3323"
    INDEX 01 00:03:59
  TRACK 07 AUDIO
    TITLE "0:"
    INDEX 01 00:05:56
  TRACK 08 AUDIO
    TITLE "5:cjc157_3324"
    INDEX 01 00:06:26
  TRACK 09 AUDIO
    TITLE "0:"
    INDEX 01 00:08:11
  TRACK 10 AUDIO
    TITLE "3:cjc157_3325"
    INDEX 01 00:08:58
  TRACK 11 AUDIO
    TITLE "0:"
    INDEX 01 00:09:63
  TRACK 12 AUDIO
    TITLE "4:cjc157_3326"
    INDEX 01 00:10:35
  TRACK 13 AUDIO
    TITLE "0:"
    INDEX 01 00:11:60
  TRACK 14 AUDIO
    TITLE "5:cjc157_3327"
    INDEX 01 00:12:24
  TRACK 15 AUDIO
    TITLE "0:"
    INDEX 01 00:14:66
  TRACK 16 AUDIO
    TITLE "3:cjc157_3328"
    INDEX 01 00:15:32
  TRACK 17 AUDIO
    TITLE "0:"
    INDEX 01 00:16:48
  TRACK 18 AUDIO
    TITLE "4:cjc157_3329"
    INDEX 01 00:17:16
  TRACK 19 AUDIO
    TITLE "0:"
    INDEX 01 00:18:41
  TRACK 20 AUDIO
    TITLE "5:cjc157_3330"
    INDEX 01 00:19:15
  TRACK 21 AUDIO
    TITLE "0:"
    INDEX 01 00:22:15
  TRACK 22 AUDIO
    TITLE "5:cjc157_3331"
    INDEX 01 00:22:64
  TRACK 23 AUDIO
    TITLE "0:"
    INDEX 01 00:24:27
  TRACK 24 AUDIO
    TITLE "3:cjc157_3332"
    INDEX 01 00:24:74
  TRACK 25 AUDIO
    TITLE "0:"
    INDEX 01 00:26:22
  TRACK 26 AUDIO
    TITLE "4:cjc157_3333"
    INDEX 01 00:26:67
  TRACK 27 AUDIO
    TITLE "0:"
    INDEX 01 00:28:13
  TRACK 28 AUDIO
    TITLE "5:cjc157_3334"
    INDEX 01 00:28:59
  TRACK 29 AUDIO
    TITLE "0:"
    INDEX 01 00:30:44
  TRACK 30 AUDIO
    TITLE "5:cjc157_3335"
    INDEX 01 00:31:16
  TRACK 31 AUDIO
    TITLE "0:"
    INDEX 01 00:32:50
  TRACK 32 AUDIO
    TITLE "5:cjc157_3336"
    INDEX 01 00:33:21
  TRACK 33 AUDIO
    TITLE "0:"
    INDEX 01 00:34:36
  TRACK 34 AUDIO
    TITLE "3:cjc157_3337"
    INDEX 01 00:35:10
  TRACK 35 AUDIO
    TITLE "0:"
    INDEX 01 00:36:38
  TRACK 36 AUDIO
    TITLE "4:cjc157_3338"
    INDEX 01 00:37:08
  TRACK 37 AUDIO
    TITLE "0:"
    INDEX 01 00:38:53
  TRACK 38 AUDIO
    TITLE "5:cjc157_3339"
    INDEX 01 00:39:19
  TRACK 39 AUDIO
    TITLE "0:"
    INDEX 01 00:41:36
  TRACK 40 AUDIO
    TITLE "5:cjc157_3340"
    INDEX 01 00:42:12
  TRACK 41 AUDIO
    TITLE "0:"
    INDEX 01 00:44:28
  TRACK 42 AUDIO
    TITLE "3:cjc157_3341"
    INDEX 01 00:44:69
  TRACK 43 AUDIO
    TITLE "0:"
    INDEX 01 00:46:19
  TRACK 44 AUDIO
    TITLE "4:cjc157_3342"
    INDEX 01 00:46:64
  TRACK 45 AUDIO
    TITLE "0:"
    INDEX 01 00:48:26
  TRACK 46 AUDIO
    TITLE "5:cjc157_3343"
    INDEX 01 00:48:73
  TRACK 47 AUDIO
    TITLE "0:"
    INDEX 01 00:51:15
  TRACK 48 AUDIO
    TITLE "3:cjc157_3344"
    INDEX 01 00:51:58
  TRACK 49 AUDIO
    TITLE "0:"
    INDEX 01 00:53:02
  TRACK 50 AUDIO
    TITLE "4:cjc157_3345"
    INDEX 01 00:53:49
  TRACK 51 AUDIO
    TITLE "0:"
    INDEX 01 00:54:56
  TRACK 52 AUDIO
    TITLE "5:cjc157_3346"
    INDEX 01 00:55:28
  TRACK 53 AUDIO
    TITLE "0:"
    INDEX 01 00:57:15
  TRACK 54 AUDIO
    TITLE "5:cjc157_3347"
    INDEX 01 00:57:62
  TRACK 55 AUDIO
    TITLE "0:"
    INDEX 01 00:59:43
  TRACK 56 AUDIO
    TITLE "3:cjc157_3348"
    INDEX 01 01:00:15
  TRACK 57 AUDIO
    TITLE "0:"
    INDEX 01 01:01:25
  TRACK 58 AUDIO
    TITLE "4:cjc157_3349"
    INDEX 01 01:01:70
  TRACK 59 AUDIO
    TITLE "0:"
    INDEX 01 01:03:20
  TRACK 60 AUDIO
    TITLE "5:cjc157_3350"
    INDEX 01 01:03:65
  TRACK 61 AUDIO
    TITLE "0:"
    INDEX 01 01:05:71
  TRACK 62 AUDIO
    TITLE "5:cjc157_3351"
    INDEX 01 01:06:43
  TRACK 63 AUDIO
    TITLE "0:"
    INDEX 01 01:08:36
  TRACK 64 AUDIO
    TITLE "3:cjc157_3352"
    INDEX 01 01:09:09
  TRACK 65 AUDIO
    TITLE "0:"
    INDEX 01 01:10:30
  TRACK 66 AUDIO
    TITLE "4:cjc157_3353"
    INDEX 01 01:11:00
  TRACK 67 AUDIO
    TITLE "0:"
    INDEX 01 01:14:14
  TRACK 68 AUDIO
    TITLE "5:cjc157_3354"
    INDEX 01 01:14:61
  TRACK 69 AUDIO
    TITLE "0:"
    INDEX 01 01:18:41
  TRACK 70 AUDIO
    TITLE "5:cjc157_3355"
    INDEX 01 01:19:15
  TRACK 71 AUDIO
    TITLE "0:"
    INDEX 01 01:20:36
  TRACK 72 AUDIO
    TITLE "3:cjc157_3356"
    INDEX 01 01:21:10
  TRACK 73 AUDIO
    TITLE "0:"
    INDEX 01 01:22:31
  TRACK 74 AUDIO
    TITLE "4:cjc157_3357"
    INDEX 01 01:23:03
  TRACK 75 AUDIO
    TITLE "0:"
    INDEX 01 01:24:20
  TRACK 76 AUDIO
    TITLE "5:cjc157_3358"
    INDEX 01 01:24:61
  TRACK 77 AUDIO
    TITLE "0:"
    INDEX 01 01:27:08
  TRACK 78 AUDIO
    TITLE "5:cjc157_3359"
    INDEX 01 01:27:53
  TRACK 79 AUDIO
    TITLE "0:"
    INDEX 01 01:30:50
